<svg width="485" height="398" viewBox="0 0 485 398" fill="none" xmlns="http://www.w3.org/2000/svg">
<path d="M426.869 221.575C414.327 318.865 325.292 387.567 228.002 375.026C130.712 362.484 62.0085 273.449 74.5498 176.159C87.0911 78.8684 176.127 10.1667 273.418 22.7081C370.708 35.2494 439.41 124.284 426.869 221.575Z" stroke="#3AD9AC" stroke-width="3" stroke-linecap="square" stroke-dasharray="5 10"/>
<path d="M204.27 97.363H297.061C299.76 97.363 301.949 99.5522 301.949 102.251V299.62C301.949 302.32 299.76 304.508 297.061 304.508H204.27C201.569 304.508 199.382 302.32 199.382 299.62V102.251C199.382 99.5522 201.569 97.363 204.27 97.363Z" fill="#454061"/>
<path d="M228.178 101.723H205.528C204.177 101.723 203.083 102.818 203.083 104.167V298.1C203.083 299.449 204.177 300.543 205.528 300.543H295.803C297.152 300.543 298.248 299.449 298.248 298.1V104.174C298.248 102.824 297.152 101.73 295.803 101.73H228.178V101.723Z" fill="#36A691"/>
<path d="M211.217 106.654H219.859V110.328H211.217V106.654Z" fill="#454061"/>
<path d="M211.217 106.654H219.859V110.328H211.217V106.654Z" stroke="#454061" stroke-width="0.5" stroke-linecap="round" stroke-linejoin="round"/>
<path d="M219.859 107.273H221.201V109.712H219.859V107.273Z" fill="#454061"/>
<path d="M219.859 107.273H221.201V109.712H219.859V107.273Z" stroke="#454061" stroke-width="0.5" stroke-linecap="round" stroke-linejoin="round"/>
<path d="M279.604 108.997H281.138V110.328H279.604V108.997Z" fill="#454061"/>
<path d="M279.604 108.997H281.138V110.328H279.604V108.997Z" stroke="#454061" stroke-width="0.5" stroke-linecap="round" stroke-linejoin="round"/>
<path d="M282.597 107.656H284.131V110.329H282.597V107.656Z" fill="#454061"/>
<path d="M282.597 107.656H284.131V110.329H282.597V107.656Z" stroke="#454061" stroke-width="0.5" stroke-linecap="round" stroke-linejoin="round"/>
<path d="M285.588 106.315H287.122V110.329H285.588V106.315Z" fill="#454061"/>
<path d="M285.588 106.315H287.122V110.329H285.588V106.315Z" stroke="#454061" stroke-width="0.5" stroke-linecap="round" stroke-linejoin="round"/>
<path d="M288.58 104.976H290.114V110.329H288.58V104.976Z" fill="#454061"/>
<path d="M288.58 104.976H290.114V110.329H288.58V104.976Z" stroke="#454061" stroke-width="0.5" stroke-linecap="round" stroke-linejoin="round"/>
<path d="M368.848 247.293L479.242 250.427C482.4 250.517 484.887 253.151 484.798 256.307L482.91 322.781C482.821 325.937 480.188 328.426 477.03 328.336L366.636 325.202C363.478 325.112 360.992 322.478 361.082 319.322L362.969 252.848C363.059 249.692 365.69 247.203 368.848 247.293Z" fill="#454061"/>
<path d="M368.018 247.269L480.072 250.451C482.772 250.527 484.897 252.778 484.82 255.476L484.341 272.356L362.512 268.897L362.992 252.016C363.068 249.319 365.319 247.193 368.018 247.269Z" fill="#79768E"/>
<path d="M376.313 277.716L398.907 278.357C400.705 278.408 402.123 279.908 402.072 281.708L401.7 294.801C401.649 296.601 400.149 298.018 398.35 297.966L375.756 297.325C373.956 297.274 372.538 295.774 372.589 293.975L372.961 280.881C373.012 279.081 374.513 277.665 376.313 277.716Z" fill="#575274"/>
<path d="M447.47 279.736L470.064 280.378C471.862 280.429 473.28 281.928 473.229 283.728L473.224 283.884C473.173 285.684 471.673 287.1 469.874 287.049L447.28 286.408C445.48 286.357 444.062 284.857 444.114 283.057L444.118 282.901C444.169 281.102 445.67 279.685 447.47 279.736Z" fill="#575274"/>
<path d="M457.945 290.824L469.758 291.159C471.557 291.211 472.974 292.71 472.923 294.51L472.918 294.666C472.867 296.465 471.368 297.882 469.568 297.831L457.756 297.496C455.956 297.445 454.539 295.945 454.591 294.145L454.595 293.989C454.646 292.19 456.146 290.773 457.945 290.824Z" fill="#575274"/>
<path d="M3.25587 172.129L131.859 166.398C133.658 166.317 135.18 167.711 135.26 169.51L137.509 219.974C137.589 221.772 136.197 223.294 134.399 223.375L5.79499 229.106C3.99628 229.186 2.47419 227.794 2.39403 225.995L0.145152 175.531C0.0649945 173.732 1.45716 172.209 3.25587 172.129Z" fill="#454061"/>
<path d="M97.74 209.713L92.0257 209.968L98.6894 180.938L104.405 180.683L97.74 209.713Z" fill="#79768E"/>
<path d="M93.5371 182.067C93.0782 181.521 92.3724 181.247 91.6646 181.337L60.2656 182.736L58.9665 188.421L87.5278 187.148L86.1276 193.223L63.282 194.241L63.2815 194.229L57.5684 194.484L53.5923 211.813L59.3066 211.558L61.9703 199.935L87.6549 198.79C88.4794 198.748 89.2665 198.424 89.8822 197.874C90.5364 197.34 90.9954 196.602 91.1865 195.781L93.8502 184.157C94.0868 183.45 93.9702 182.674 93.5371 182.067Z" fill="#79768E"/>
<path d="M50.1741 210.034C49.9091 211.183 48.9131 212.018 47.7354 212.075L18.2702 213.388C17.5763 213.469 16.8886 213.192 16.443 212.654C16.0137 212.073 15.8879 211.323 16.1058 210.634L22.1381 184.43L27.8511 184.176L22.4643 207.577L45.3281 206.558L50.7149 183.157L56.4292 182.902L50.1741 210.034Z" fill="#79768E"/>
<path d="M114.275 180.294L122.14 194.345L107.588 209.392L114.275 180.294Z" fill="#575274"/>
<path d="M109.198 180.521L117.062 194.571L102.497 209.619L109.198 180.521Z" fill="#79768E"/>
<path d="M233.466 195.198C233.222 192.871 231.139 191.18 228.812 191.423C226.485 191.666 224.795 193.75 225.039 196.078C225.28 198.403 227.362 200.093 229.688 199.852C232.017 199.611 233.707 197.527 233.466 195.198Z" fill="#454061"/>
<path d="M229.659 184.754C229.848 184.937 230.053 185.104 230.272 185.252C232.325 186.647 235.12 186.113 236.514 184.06C237.741 182.252 237.491 179.825 235.924 178.306C235.734 178.122 235.527 177.954 235.309 177.806C233.249 176.42 230.455 176.967 229.07 179.025C227.857 180.826 228.104 183.237 229.659 184.754Z" fill="#454061"/>
<path d="M239.99 174.307C240.71 176.831 243.34 178.295 245.865 177.576C248.39 176.856 249.852 174.226 249.134 171.701C248.414 169.177 245.783 167.714 243.259 168.433L243.257 168.433C240.738 169.144 239.273 171.763 239.983 174.281C239.986 174.289 239.988 174.299 239.99 174.307Z" fill="#454061"/>
<path d="M255.577 177.635C257.565 179.559 260.735 179.507 262.659 177.519C264.58 175.533 264.529 172.362 262.541 170.439C260.554 168.515 257.384 168.566 255.459 170.553C255.054 170.972 254.727 171.46 254.489 171.991C253.63 173.916 254.064 176.17 255.577 177.635Z" fill="#454061"/>
<path d="M264.771 186.453C266.041 189.075 269.198 190.17 271.82 188.9C274.441 187.629 275.537 184.473 274.266 181.852C272.996 179.231 269.84 178.135 267.219 179.405C265.957 180.016 264.991 181.104 264.533 182.428C264.074 183.748 264.16 185.196 264.771 186.453Z" fill="#454061"/>
<path d="M265.649 197.267C264.907 200.227 266.705 203.225 269.663 203.969L269.666 203.972C272.627 204.713 275.628 202.914 276.37 199.956C277.141 197.002 275.374 193.983 272.42 193.212C269.467 192.441 266.448 194.207 265.677 197.16C265.668 197.195 265.658 197.232 265.649 197.267Z" fill="#454061"/>
<path d="M266.886 206.494C264.587 204.276 260.926 204.342 258.708 206.641C256.763 208.658 256.542 211.779 258.186 214.049C258.386 214.323 258.611 214.58 258.855 214.816C261.153 217.034 264.814 216.968 267.032 214.67C268.978 212.654 269.196 209.531 267.552 207.262C267.352 206.986 267.129 206.73 266.886 206.494Z" fill="#454061"/>
<path d="M253.083 210.302C250.687 207.981 246.863 208.042 244.541 210.438C242.222 212.834 242.282 216.658 244.679 218.98C247.074 221.3 250.899 221.24 253.219 218.843C254.207 217.825 254.803 216.491 254.905 215.078C255.033 213.295 254.367 211.546 253.083 210.302Z" fill="#454061"/>
<path d="M231.038 213.433C228.431 210.909 228.363 206.749 230.887 204.142C233.411 201.535 237.571 201.468 240.177 203.992C242.785 206.516 242.852 210.675 240.328 213.282C237.804 215.889 233.645 215.957 231.038 213.433Z" fill="#454061"/>
<path d="M373.674 31.7652C393.867 31.7652 410.236 48.1343 410.236 68.3276C410.236 88.5208 393.867 104.89 373.674 104.89C353.481 104.89 337.112 88.5208 337.112 68.3276C337.112 48.1343 353.481 31.7652 373.674 31.7652Z" fill="#79768E"/>
<path d="M374.981 104.89C380.573 104.095 385.474 98.2607 388.559 89.6423C384.1 88.6436 379.55 88.1075 374.981 88.0433V104.89Z" fill="#454061"/>
<path d="M383.916 103.52C384.246 103.425 384.576 103.329 384.904 103.224C385.179 103.135 385.449 103.037 385.721 102.944C386.043 102.833 386.362 102.719 386.681 102.603C386.954 102.5 387.223 102.389 387.493 102.28L388.425 101.888C388.692 101.77 388.958 101.646 389.226 101.521C389.526 101.38 389.827 101.235 390.125 101.085C390.385 100.951 390.647 100.813 390.909 100.674C391.203 100.517 391.495 100.356 391.784 100.193C392.044 100.044 392.295 99.8965 392.549 99.7437L393.395 99.2212C393.648 99.0616 393.894 98.8992 394.141 98.7314C394.417 98.5459 394.689 98.3494 394.96 98.157C395.201 97.9865 395.446 97.8146 395.682 97.6345C395.944 97.4326 396.211 97.2252 396.473 97.0164C396.705 96.8295 396.94 96.6467 397.169 96.4557C397.429 96.2374 397.68 96.0123 397.93 95.7872C398.154 95.5907 398.376 95.3956 398.593 95.1937C398.843 94.9604 399.086 94.7189 399.329 94.4802C399.539 94.2714 399.751 94.0668 399.957 93.8526C399.996 93.813 400.033 93.7707 400.072 93.7298C397.222 92.2577 394.222 91.1021 391.119 90.2835C389.507 95.4284 386.635 100.092 382.767 103.848L383.086 103.771C383.367 103.689 383.643 103.597 383.916 103.52Z" fill="#454061"/>
<path d="M410.235 69.7096H394.563C394.503 75.8272 393.615 81.9107 391.923 87.7909C395.373 88.7119 398.702 90.0366 401.843 91.7379C406.999 85.5248 409.95 77.7782 410.235 69.7096Z" fill="#454061"/>
<path d="M374.982 67.0956H391.952C391.889 61.1922 391.025 55.3243 389.387 49.6514C384.661 50.7265 379.835 51.3009 374.988 51.3623L374.982 67.0956Z" fill="#454061"/>
<path d="M374.981 31.9112V48.7605C379.55 48.695 384.1 48.1589 388.559 47.1602C385.481 38.5418 380.573 32.7052 374.981 31.9112Z" fill="#454061"/>
<path d="M374.981 85.4279C379.827 85.4893 384.654 86.0637 389.38 87.1388C391.019 81.4659 391.882 75.598 391.946 69.6946H374.974L374.981 85.4279Z" fill="#454061"/>
<path d="M401.844 45.0673C398.705 46.7686 395.376 48.0934 391.926 49.0143C393.618 54.8945 394.504 60.978 394.563 67.0956H410.232C409.947 59.027 406.997 51.2804 401.844 45.0673Z" fill="#454061"/>
<path d="M400.082 43.0849C400.043 43.0454 400.005 43.0058 399.968 42.9649C399.762 42.7507 399.545 42.546 399.335 42.3387C399.092 42.0999 398.854 41.8584 398.604 41.6265C398.388 41.4246 398.163 41.2349 397.941 41.033C397.687 40.8093 397.428 40.5814 397.173 40.3631C396.946 40.1721 396.714 39.9907 396.488 39.8079C396.227 39.595 395.959 39.3863 395.69 39.1844C395.454 39.0125 395.216 38.8419 394.975 38.6605C394.702 38.464 394.425 38.2689 394.147 38.0806C393.903 37.9101 393.654 37.7559 393.406 37.599C393.124 37.4176 392.843 37.2388 392.551 37.0669C392.301 36.9169 392.038 36.7654 391.789 36.6222C391.497 36.4544 391.203 36.292 390.908 36.1351C390.646 36.0055 390.387 35.8609 390.125 35.7313C389.823 35.5785 389.52 35.4325 389.208 35.2879C388.947 35.1637 388.684 35.0437 388.413 34.9263C388.103 34.7885 387.789 34.6644 387.478 34.5334C387.208 34.4243 386.94 34.3137 386.669 34.2114C386.351 34.09 386.029 33.9781 385.709 33.8703C385.436 33.7748 385.164 33.678 384.89 33.5907C384.564 33.4842 384.236 33.3874 383.902 33.2891C383.629 33.2086 383.354 33.1295 383.081 33.0558C382.974 33.0272 382.869 33.004 382.763 32.9767C386.632 36.7327 389.501 41.3959 391.115 46.5408C394.22 45.7208 397.227 44.5611 400.082 43.0849Z" fill="#454061"/>
<path d="M337.112 67.0942H352.781C352.841 60.9753 353.729 54.8931 355.421 49.0129C351.97 48.092 348.64 46.7673 345.501 45.0659C340.346 51.2791 337.395 59.0257 337.112 67.0942Z" fill="#454061"/>
<path d="M372.366 104.89V88.0433C367.796 88.1075 363.246 88.6436 358.788 89.6423C361.875 98.2607 366.775 104.093 372.366 104.89Z" fill="#454061"/>
<path d="M372.366 69.7083H355.394C355.456 75.6117 356.319 81.481 357.958 87.1524C362.684 86.0773 367.511 85.5043 372.359 85.4429L372.366 69.7083Z" fill="#454061"/>
<path d="M372.366 31.9112C366.773 32.7066 361.871 38.5418 358.788 47.1602C363.246 48.1602 367.796 48.6964 372.366 48.7605V31.9112Z" fill="#454061"/>
<path d="M372.365 51.3746C367.519 51.3132 362.692 50.7402 357.966 49.6651C356.328 55.3365 355.464 61.2058 355.4 67.1092H372.372L372.365 51.3746Z" fill="#454061"/>
<path d="M364.575 32.9699L364.257 33.0477C363.979 33.12 363.705 33.2032 363.431 33.2823C363.102 33.3792 362.777 33.4761 362.447 33.5825C362.17 33.6725 361.896 33.768 361.623 33.8622C361.304 33.9754 360.984 34.0887 360.669 34.2046C360.395 34.3083 360.125 34.4188 359.855 34.5293L358.926 34.9209C358.657 35.0396 358.391 35.1624 358.123 35.2865C357.823 35.4284 357.522 35.573 357.224 35.7245C356.964 35.8568 356.702 35.9946 356.441 36.1338C356.148 36.2907 355.855 36.4516 355.567 36.6154C355.306 36.7613 355.05 36.9101 354.796 37.0642C354.512 37.2348 354.231 37.4067 353.951 37.5881C353.699 37.7478 353.451 37.9128 353.204 38.0793C352.928 38.2662 352.657 38.4572 352.386 38.6509C352.144 38.8228 351.901 38.9934 351.663 39.1748C351.396 39.3767 351.141 39.5855 350.872 39.7929C350.64 39.9798 350.404 40.1626 350.176 40.3563C349.916 40.5719 349.663 40.797 349.415 41.0194C349.191 41.2172 348.966 41.4096 348.746 41.617C348.5 41.8475 348.257 42.089 348.015 42.3278C347.805 42.5365 347.591 42.7425 347.385 42.9554C347.348 42.9949 347.311 43.0399 347.27 43.0795C350.12 44.5516 353.123 45.7085 356.226 46.5258C357.838 41.385 360.71 36.7245 364.575 32.9699Z" fill="#454061"/>
<path d="M348.011 94.4665C348.254 94.7053 348.495 94.9481 348.745 95.1828C348.962 95.3847 349.183 95.573 349.408 95.7736C349.662 96 349.921 96.2265 350.176 96.4434C350.401 96.6331 350.633 96.8173 350.86 97.0001C351.122 97.2129 351.384 97.4217 351.661 97.6249C351.897 97.7955 352.135 97.9674 352.375 98.1488C352.648 98.3453 352.925 98.5418 353.204 98.73C353.446 98.9006 353.695 99.0547 353.944 99.213C354.225 99.3945 354.508 99.5705 354.798 99.7437C355.05 99.8952 355.305 100.044 355.561 100.19C355.853 100.358 356.146 100.52 356.443 100.677C356.703 100.807 356.965 100.953 357.227 101.082C357.528 101.235 357.83 101.378 358.142 101.524C358.403 101.647 358.669 101.77 358.939 101.887C359.248 102.025 359.56 102.148 359.872 102.279C360.141 102.388 360.41 102.498 360.681 102.601C360.998 102.722 361.321 102.835 361.642 102.942C361.913 103.037 362.186 103.135 362.462 103.223C362.788 103.328 363.114 103.425 363.45 103.522C363.723 103.601 363.995 103.68 364.27 103.753C364.375 103.783 364.481 103.807 364.587 103.834C360.718 100.077 357.85 95.4147 356.236 90.2699C353.135 91.0871 350.133 92.2454 347.282 93.7189C347.319 93.7571 347.358 93.798 347.396 93.839C347.587 94.0518 347.8 94.2592 348.011 94.4665Z" fill="#454061"/>
<path d="M345.502 91.7352C348.643 90.0339 351.97 88.7091 355.422 87.7882C353.729 81.908 352.842 75.8258 352.782 69.7069H337.113C337.398 77.7755 340.348 85.5221 345.502 91.7352Z" fill="#454061"/>
</svg>
